<?xml version="1.0" encoding="UTF-8"?><svg id="Layer_2" xmlns="http://www.w3.org/2000/svg" viewBox="0 0 119.6 41.78"><defs><style>.cls-1{letter-spacing:-.06em;}.cls-2{opacity:.4;}.cls-3,.cls-4{fill:#ffc441;}.cls-5{fill:#fff;font-family:Bauhaus93, 'Bauhaus 93';font-size:18.92px;}.cls-4{font-family:ArialRoundedMTBold, 'Arial Rounded MT Bold';font-size:5.78px;}.cls-6{fill:#16a34a;}.cls-7{letter-spacing:-.02em;}</style></defs><g id="Layer_1-2"><g><rect class="cls-6" width="41.78" height="41.78" rx="6.46" ry="6.46"/><g><g class="cls-2"><path d="M15.05-.55h0c3.43,0,6.22,2.79,6.22,6.22v28.97c0,3.56-2.89,6.45-6.45,6.45h0V-.32c0-.13,.1-.23,.23-.23Z" transform="translate(16.47 47.35) rotate(-135)"/><path d="M17.63-.55h0c3.43,0,6.22,2.79,6.22,6.22v28.97c0,3.56-2.89,6.45-6.45,6.45h0V-.32c0-.13,.1-.23,.23-.23Z" transform="translate(-8.29 20.51) rotate(-45)"/><path d="M34.69,33.54h0c-1.55-.04-2.86-1.05-2.93-2.26l-.92-15.28c-.13-2.23,2.08-3.98,4.95-3.9h.51l1.16,19.26c.07,1.25-1.16,2.22-2.76,2.18Z"/><path d="M36.6,28.72c.45,.01,.81,.37,.83,.82l.06,1.69c.04,1.3-1.18,2.32-2.72,2.28l-11.78-.32c-2.9-.08-5.31-2.12-5.39-4.56v-.43l19.01,.52Z"/></g><g><path class="cls-3" d="M15.38,.9h0c3.2,0,5.8,2.6,5.8,5.8v27.03c0,3.32-2.7,6.01-6.01,6.01h0V1.12c0-.12,.1-.22,.22-.22Z" transform="translate(16.65 47.54) rotate(-135)"/><path class="cls-3" d="M17.78,.9h0c3.2,0,5.8,2.6,5.8,5.8v27.03c0,3.32-2.7,6.01-6.01,6.01h0V1.12c0-.12,.1-.22,.22-.22Z" transform="translate(-8.35 20.5) rotate(-45)"/><path class="cls-3" d="M33.7,32.71h0c-1.44-.04-2.67-.98-2.73-2.11l-.86-14.26c-.13-2.08,1.94-3.71,4.62-3.64h.47l1.08,17.97c.07,1.16-1.08,2.07-2.58,2.03Z"/><path class="cls-3" d="M35.49,28.21c.42,.01,.76,.35,.77,.77l.05,1.58c.04,1.21-1.1,2.16-2.54,2.12l-11-.3c-2.7-.07-4.95-1.98-5.03-4.25v-.4l17.74,.49Z"/></g></g></g><g><text class="cls-5" transform="translate(50.09 23.77)"><tspan x="0" y="0">Xaad Ali</tspan></text><text class="cls-4" transform="translate(49.36 32.56)"><tspan class="cls-7" x="0" y="0">W</tspan><tspan x="5.27" y="0">e Code </tspan><tspan class="cls-1" x="26.4" y="0">Y</tspan><tspan x="29.64" y="0">our D</tspan><tspan class="cls-7" x="44.87" y="0">r</tspan><tspan x="47.25" y="0">eams</tspan></text></g></g></svg>