<svg xmlns="http://www.w3.org/2000/svg" viewBox="0 0 115.16 41.78"><defs><style>.cls-1{fill:#16a34a;}.cls-2{opacity:0.4;}.cls-3,.cls-5{fill:#ffc441;}.cls-4{font-size:18.92px;fill:#fff;font-family:Bauhaus93, "Bauhaus 93";}.cls-5{font-size:5.78px;font-family:ArialRoundedMTBold, Arial Rounded MT Bold;}.cls-6{letter-spacing:-0.02em;}.cls-7{letter-spacing:-0.06em;}</style></defs><g id="Layer_2" data-name="Layer 2"><g id="Layer_1-2" data-name="Layer 1"><rect class="cls-1" width="41.78" height="41.78" rx="6.46"/><g class="cls-2"><path d="M16.05-.55h0a6.22,6.22,0,0,1,6.22,6.22v29a6.45,6.45,0,0,1-6.45,6.45h0a0,0,0,0,1,0,0V-.32a.23.23,0,0,1,.23-.23Z" transform="translate(18.18 48.06) rotate(-135)"/><path d="M18.63-.55h0a6.22,6.22,0,0,1,6.22,6.22v29a6.45,6.45,0,0,1-6.45,6.45h0a0,0,0,0,1,0,0V-.32a.23.23,0,0,1,.23-.23Z" transform="translate(-8 21.22) rotate(-45)"/><path d="M35.69,33.54h0a2.83,2.83,0,0,1-2.93-2.26L31.84,16c-.13-2.23,2.08-4,4.95-3.9h.51l1.15,19.25C38.53,32.61,37.29,33.58,35.69,33.54Z"/><path d="M37.6,28.72a.85.85,0,0,1,.83.82l0,1.69a2.42,2.42,0,0,1-2.72,2.28L24,33.18c-2.9-.08-5.31-2.12-5.39-4.55l0-.43Z"/></g><path class="cls-3" d="M16.38.9h0a5.8,5.8,0,0,1,5.8,5.8v27a6,6,0,0,1-6,6h0a0,0,0,0,1,0,0V1.12A.22.22,0,0,1,16.38.9Z" transform="translate(18.36 48.25) rotate(-135)"/><path class="cls-3" d="M18.78.9h0a5.8,5.8,0,0,1,5.8,5.8v27a6,6,0,0,1-6,6h0a0,0,0,0,1,0,0V1.12A.22.22,0,0,1,18.78.9Z" transform="translate(-8.05 21.21) rotate(-45)"/><path class="cls-3" d="M34.7,32.71h0A2.65,2.65,0,0,1,32,30.6l-.86-14.26c-.12-2.08,1.94-3.71,4.62-3.63h.47l1.08,18C37.35,31.84,36.2,32.75,34.7,32.71Z"/><path class="cls-3" d="M36.49,28.21a.8.8,0,0,1,.77.77l.05,1.57a2.26,2.26,0,0,1-2.54,2.13l-11-.3c-2.7-.08-4.95-2-5-4.26v-.4Z"/><text class="cls-4" transform="translate(45.65 23.77)">Xaad Ali</text><text class="cls-5" transform="translate(44.93 32.56)"><tspan class="cls-6">W</tspan><tspan x="5.27" y="0">e Code </tspan><tspan class="cls-7" x="26.4" y="0">Y</tspan><tspan x="29.64" y="0">our D</tspan><tspan class="cls-6" x="44.87" y="0">r</tspan><tspan x="47.25" y="0">eams</tspan></text></g></g></svg>