<svg width="24" height="24" viewBox="0 0 24 24" fill="none" xmlns="http://www.w3.org/2000/svg">
<path d="M22.6754 24.0001C23.4068 24.0001 24 23.407 24 22.6755V1.32459C24 0.592969 23.4068 0 22.6754 0H1.32459C0.592875 0 0 0.592969 0 1.32459V22.6755C0 23.407 0.592875 24.0001 1.32459 24.0001H22.6754" fill="#395185"/>
<path d="M13.5596 24.0002V14.7062H16.6793L17.1463 11.0841H13.5596V8.7715C13.5596 7.72281 13.8508 7.00816 15.3547 7.00816L17.2727 7.00731V3.76778C16.9408 3.72362 15.8023 3.625 14.4778 3.625C11.7124 3.625 9.81922 5.31297 9.81922 8.41291V11.0841H6.69153V14.7062H9.81922V24.0002H13.5596" fill="white"/>
</svg>
