<svg width="230" height="521" viewBox="0 0 230 521" fill="none" xmlns="http://www.w3.org/2000/svg">
<g opacity="0.2">
<mask id="mask0" style="mask-type:alpha" maskUnits="userSpaceOnUse" x="0" y="0" width="580" height="580">
<path d="M381.4 0L0.000366211 381.4L198.5 579.9L579.9 198.5L381.4 0Z" fill="url(#paint0_linear)"/>
</mask>
<g mask="url(#mask0)">
<path opacity="0.7" d="M233.6 457.7C231.3 455.4 227.5 455.4 225.2 457.7L207.1 475.8C204.8 478.1 204.8 481.9 207.1 484.2L225.2 502.3C227.5 504.6 231.3 504.6 233.6 502.3L251.7 484.2C254 481.9 254 478.1 251.7 475.8L233.6 457.7Z" fill="#757575"/>
<path opacity="0.26" d="M199.8 423.799C197.5 421.499 193.7 421.499 191.4 423.799L173.3 441.899C171 444.199 171 447.999 173.3 450.299L191.4 468.399C193.7 470.699 197.5 470.699 199.8 468.399L217.9 450.299C220.2 447.999 220.2 444.199 217.9 441.899L199.8 423.799Z" fill="#757575"/>
<path opacity="0.81" d="M234.7 388.9C232.4 386.6 228.6 386.6 226.3 388.9L208.2 407C205.9 409.3 205.9 413.1 208.2 415.4L226.3 433.5C228.6 435.8 232.4 435.8 234.7 433.5L252.8 415.4C255.1 413.1 255.1 409.3 252.8 407L234.7 388.9Z" fill="#757575"/>
<path opacity="0.52" d="M166 389.999C163.7 387.699 159.9 387.699 157.6 389.999L139.5 408.099C137.2 410.399 137.2 414.199 139.5 416.499L157.6 434.599C159.9 436.899 163.7 436.899 166 434.599L184.1 416.499C186.4 414.199 186.4 410.399 184.1 408.099L166 389.999Z" fill="#757575"/>
<path opacity="0.1" d="M200.9 354.999C198.6 352.699 194.8 352.699 192.5 354.999L174.4 373.099C172.1 375.399 172.1 379.199 174.4 381.499L192.5 399.599C194.8 401.899 198.6 401.899 200.9 399.599L219 381.499C221.3 379.199 221.3 375.399 219 373.099L200.9 354.999Z" fill="#757575"/>
<path opacity="0.77" d="M235.9 320.1C233.6 317.8 229.8 317.8 227.5 320.1L209.4 338.2C207.1 340.5 207.1 344.3 209.4 346.6L227.5 364.7C229.8 367 233.6 367 235.9 364.7L254 346.6C256.3 344.3 256.3 340.5 254 338.2L235.9 320.1Z" fill="#757575"/>
<path opacity="0.54" d="M132.1 356.1C129.8 353.8 126 353.8 123.7 356.1L105.6 374.2C103.3 376.5 103.3 380.3 105.6 382.6L123.7 400.7C126 403 129.8 403 132.1 400.7L150.2 382.6C152.5 380.3 152.5 376.5 150.2 374.2L132.1 356.1Z" fill="#757575"/>
<path opacity="0.19" d="M167.1 321.2C164.8 318.9 161 318.9 158.7 321.2L140.6 339.3C138.3 341.6 138.3 345.4 140.6 347.7L158.7 365.8C161 368.1 164.8 368.1 167.1 365.8L185.2 347.7C187.5 345.4 187.5 341.6 185.2 339.3L167.1 321.2Z" fill="#757575"/>
<path opacity="0.96" d="M202 286.2C199.7 283.9 195.9 283.9 193.6 286.2L175.5 304.3C173.2 306.6 173.2 310.4 175.5 312.7L193.6 330.8C195.9 333.1 199.7 333.1 202 330.8L220.1 312.7C222.4 310.4 222.4 306.6 220.1 304.3L202 286.2Z" fill="#757575"/>
<path opacity="0.99" d="M237 251.299C234.7 248.999 230.9 248.999 228.6 251.299L210.5 269.399C208.2 271.699 208.2 275.499 210.5 277.799L228.6 295.899C230.9 298.199 234.7 298.199 237 295.899L255.1 277.799C257.4 275.499 257.4 271.699 255.1 269.399L237 251.299Z" fill="#757575"/>
<path opacity="0.24" d="M98.3 322.299C96 319.999 92.2 319.999 89.9 322.299L71.8 340.399C69.5 342.699 69.5 346.499 71.8 348.799L89.9 366.999C92.2 369.299 96 369.299 98.3 366.999L116.4 348.899C118.7 346.599 118.7 342.799 116.4 340.499L98.3 322.299Z" fill="#757575"/>
<path opacity="0.71" d="M133.2 287.4C130.9 285.1 127.1 285.1 124.8 287.4L106.7 305.5C104.4 307.8 104.4 311.6 106.7 313.9L124.8 332C127.1 334.3 130.9 334.3 133.2 332L151.3 313.9C153.6 311.6 153.6 307.8 151.3 305.5L133.2 287.4Z" fill="#757575"/>
<path opacity="0.13" d="M168.2 252.4C165.9 250.1 162.1 250.1 159.8 252.4L141.7 270.5C139.4 272.8 139.4 276.6 141.7 278.9L159.8 297C162.1 299.3 165.9 299.3 168.2 297L186.3 278.9C188.6 276.6 188.6 272.8 186.3 270.5L168.2 252.4Z" fill="#757575"/>
<path opacity="0.22" d="M203.1 217.4C200.8 215.1 197 215.1 194.7 217.4L176.6 235.5C174.3 237.8 174.3 241.6 176.6 243.9L194.7 262C197 264.3 200.8 264.3 203.1 262L221.3 244C223.6 241.7 223.6 237.9 221.3 235.6L203.1 217.4Z" fill="#757575"/>
<path opacity="0.81" d="M238.1 182.499C235.8 180.199 232 180.199 229.7 182.499L211.6 200.599C209.3 202.899 209.3 206.699 211.6 208.999L229.7 227.099C232 229.399 235.8 229.399 238.1 227.099L256.2 208.999C258.5 206.699 258.5 202.899 256.2 200.599L238.1 182.499Z" fill="#757575"/>
</g>
<mask id="mask1" style="mask-type:alpha" maskUnits="userSpaceOnUse" x="154" y="107" width="381" height="380">
<path d="M404.401 107.1L154.901 356.7L284.801 486.6L534.301 237L404.401 107.1Z" fill="url(#paint1_linear)"/>
</mask>
<g mask="url(#mask1)">
<path opacity="0.54" d="M241.301 340.199C239.801 338.699 237.301 338.699 235.801 340.199L224.001 351.999C222.501 353.499 222.501 355.999 224.001 357.499L235.901 369.399C237.401 370.899 239.901 370.899 241.401 369.399L253.301 357.499C254.801 355.999 254.801 353.499 253.301 351.999L241.301 340.199Z" fill="#757575"/>
<path opacity="0.24" d="M219.201 318C217.701 316.5 215.201 316.5 213.701 318L201.801 329.9C200.301 331.4 200.301 333.9 201.801 335.4L213.701 347.3C215.201 348.8 217.701 348.8 219.201 347.3L231.101 335.4C232.601 333.9 232.601 331.4 231.101 329.9L219.201 318Z" fill="#757575"/>
<path opacity="0.71" d="M242.1 295.199C240.6 293.699 238.1 293.699 236.6 295.199L224.7 307.099C223.2 308.599 223.2 311.099 224.7 312.599L236.6 324.499C238.1 325.999 240.6 325.999 242.1 324.499L254 312.599C255.5 311.099 255.5 308.599 254 307.099L242.1 295.199Z" fill="#757575"/>
</g>
</g>
<defs>
<linearGradient id="paint0_linear" x1="281.667" y1="281.671" x2="204.267" y2="204.271" gradientUnits="userSpaceOnUse">
<stop offset="0.1087" stop-color="white"/>
<stop offset="0.201" stop-color="#CFCFCF"/>
<stop offset="0.3182" stop-color="#999999"/>
<stop offset="0.4368" stop-color="#6A6A6A"/>
<stop offset="0.5542" stop-color="#444444"/>
<stop offset="0.6699" stop-color="#262626"/>
<stop offset="0.7838" stop-color="#111111"/>
<stop offset="0.8949" stop-color="#040404"/>
<stop offset="1"/>
</linearGradient>
<linearGradient id="paint1_linear" x1="339.182" y1="291.432" x2="288.543" y2="240.792" gradientUnits="userSpaceOnUse">
<stop offset="0.1087" stop-color="white"/>
<stop offset="0.201" stop-color="#CFCFCF"/>
<stop offset="0.3182" stop-color="#999999"/>
<stop offset="0.4368" stop-color="#6A6A6A"/>
<stop offset="0.5542" stop-color="#444444"/>
<stop offset="0.6699" stop-color="#262626"/>
<stop offset="0.7838" stop-color="#111111"/>
<stop offset="0.8949" stop-color="#040404"/>
<stop offset="1"/>
</linearGradient>
</defs>
</svg>
