<svg width="223" height="543" viewBox="0 0 223 543" fill="none" xmlns="http://www.w3.org/2000/svg">
<g opacity="0.2">
<mask id="mask0" style="mask-type:alpha" maskUnits="userSpaceOnUse" x="-357" y="0" width="580" height="580">
<path d="M-158.5 579.9L222.9 198.5L24.3999 0L-357 381.4L-158.5 579.9Z" fill="url(#paint0_linear)"/>
</mask>
<g mask="url(#mask0)">
<path opacity="0.7" d="M-10.7001 122.2C-8.4001 124.5 -4.6001 124.5 -2.3001 122.2L15.7999 104.1C18.0999 101.8 18.0999 98 15.7999 95.7L-2.3001 77.6C-4.6001 75.3 -8.4001 75.3 -10.7001 77.6L-28.8001 95.7C-31.1001 98 -31.1001 101.8 -28.8001 104.1L-10.7001 122.2Z" fill="#757575"/>
<path opacity="0.26" d="M23.0997 156.1C25.3997 158.4 29.1997 158.4 31.4997 156.1L49.5997 138C51.8997 135.7 51.8997 131.9 49.5997 129.6L31.4997 111.5C29.1997 109.2 25.3997 109.2 23.0997 111.5L4.99973 129.6C2.69973 131.9 2.69973 135.7 4.99973 138L23.0997 156.1Z" fill="#757575"/>
<path opacity="0.81" d="M-11.9003 191C-9.60029 193.3 -5.80027 193.3 -3.50027 191L14.5997 172.9C16.8997 170.6 16.8997 166.8 14.5997 164.5L-3.50027 146.4C-5.80027 144.1 -9.60029 144.1 -11.9003 146.4L-30.0003 164.5C-32.3003 166.8 -32.3003 170.6 -30.0003 172.9L-11.9003 191Z" fill="#757575"/>
<path opacity="0.52" d="M56.8995 189.9C59.1995 192.2 62.9995 192.2 65.2995 189.9L83.3995 171.8C85.6995 169.5 85.6995 165.7 83.3995 163.4L65.2995 145.3C62.9995 143 59.1995 143 56.8995 145.3L38.7995 163.4C36.4995 165.7 36.4995 169.5 38.7995 171.8L56.8995 189.9Z" fill="#757575"/>
<path opacity="0.1" d="M21.9996 224.9C24.2996 227.2 28.0996 227.2 30.3996 224.9L48.4996 206.8C50.7996 204.5 50.7996 200.7 48.4996 198.4L30.3996 180.3C28.0996 178 24.2996 178 21.9996 180.3L3.8996 198.4C1.59961 200.7 1.59961 204.5 3.8996 206.8L21.9996 224.9Z" fill="#757575"/>
<path opacity="0.77" d="M-13.0004 259.8C-10.7004 262.1 -6.9004 262.1 -4.6004 259.8L13.4996 241.7C15.7996 239.4 15.7996 235.6 13.4996 233.3L-4.6004 215.2C-6.9004 212.9 -10.7004 212.9 -13.0004 215.2L-31.1004 233.3C-33.4004 235.6 -33.4004 239.4 -31.1004 241.7L-13.0004 259.8Z" fill="#757575"/>
<path opacity="0.54" d="M90.7999 223.8C93.0999 226.1 96.8999 226.1 99.1999 223.8L117.3 205.7C119.6 203.4 119.6 199.6 117.3 197.3L99.1999 179.2C96.8999 176.9 93.0999 176.9 90.7999 179.2L72.6999 197.3C70.3999 199.6 70.3999 203.4 72.6999 205.7L90.7999 223.8Z" fill="#757575"/>
<path opacity="0.19" d="M55.7999 258.7C58.0999 261 61.8999 261 64.1999 258.7L82.2999 240.6C84.5999 238.3 84.5999 234.5 82.2999 232.2L64.1999 214.1C61.8999 211.8 58.0999 211.8 55.7999 214.1L37.6999 232.2C35.3999 234.5 35.3999 238.3 37.6999 240.6L55.7999 258.7Z" fill="#757575"/>
<path opacity="0.96" d="M20.8995 293.7C23.1995 296 26.9995 296 29.2995 293.7L47.3995 275.6C49.6995 273.3 49.6995 269.5 47.3995 267.2L29.2995 249.1C26.9995 246.8 23.1995 246.8 20.8995 249.1L2.79951 267.2C0.499508 269.5 0.499508 273.3 2.79951 275.6L20.8995 293.7Z" fill="#757575"/>
<path opacity="0.99" d="M-14.1005 328.6C-11.8005 330.9 -8.00049 330.9 -5.70049 328.6L12.3995 310.5C14.6995 308.2 14.6995 304.4 12.3995 302.1L-5.70049 284C-8.00049 281.7 -11.8005 281.7 -14.1005 284L-32.2005 302.1C-34.5005 304.4 -34.5005 308.2 -32.2005 310.5L-14.1005 328.6Z" fill="#757575"/>
<path opacity="0.24" d="M124.6 257.6C126.9 259.9 130.7 259.9 133 257.6L151.1 239.5C153.4 237.2 153.4 233.4 151.1 231.1L133 213C130.7 210.7 126.9 210.7 124.6 213L106.5 231.1C104.2 233.4 104.2 237.2 106.5 239.5L124.6 257.6Z" fill="#757575"/>
<path opacity="0.71" d="M89.6998 292.6C91.9998 294.9 95.7998 294.9 98.0998 292.6L116.2 274.5C118.5 272.2 118.5 268.4 116.2 266.1L98.0998 248C95.7998 245.7 91.9998 245.7 89.6998 248L71.5998 266.1C69.2998 268.4 69.2998 272.2 71.5998 274.5L89.6998 292.6Z" fill="#757575"/>
<path opacity="0.13" d="M54.6998 327.5C56.9998 329.8 60.7998 329.8 63.0998 327.5L81.1998 309.4C83.4998 307.1 83.4998 303.3 81.1998 301L63.0998 282.9C60.7998 280.6 56.9998 280.6 54.6998 282.9L36.5998 301C34.2998 303.3 34.2998 307.1 36.5998 309.4L54.6998 327.5Z" fill="#757575"/>
<path opacity="0.22" d="M19.7999 362.5C22.0999 364.8 25.8999 364.8 28.1999 362.5L46.2999 344.3C48.5999 342 48.5999 338.2 46.2999 335.9L28.1999 317.8C25.8999 315.5 22.0999 315.5 19.7999 317.8L1.6999 335.9C-0.600101 338.2 -0.600101 342 1.6999 344.3L19.7999 362.5Z" fill="#757575"/>
<path opacity="0.81" d="M-15.2001 397.4C-12.9001 399.7 -9.1001 399.7 -6.8001 397.4L11.2999 379.3C13.5999 377 13.5999 373.2 11.2999 370.9L-6.8001 352.8C-9.1001 350.5 -12.9001 350.5 -15.2001 352.8L-33.3001 370.9C-35.6001 373.2 -35.6001 377 -33.3001 379.3L-15.2001 397.4Z" fill="#757575"/>
</g>
<mask id="mask1" style="mask-type:alpha" maskUnits="userSpaceOnUse" x="-312" y="93" width="381" height="380">
<path d="M-181.5 472.8L68 223.2L-61.9 93.2998L-311.4 342.9L-181.5 472.8Z" fill="url(#paint1_linear)"/>
</mask>
<g mask="url(#mask1)">
<path opacity="0.54" d="M-18.4 239.7C-16.9 241.2 -14.4 241.2 -12.9 239.7L-1 227.8C0.5 226.3 0.5 223.8 -1 222.3L-12.9 210.4C-14.4 208.9 -16.9 208.9 -18.4 210.4L-30.3 222.3C-31.8 223.8 -31.8 226.3 -30.3 227.8L-18.4 239.7Z" fill="#757575"/>
<path opacity="0.24" d="M3.69998 261.9C5.19998 263.4 7.69998 263.4 9.19998 261.9L21 250C22.5 248.5 22.5 246 21 244.5L9.09998 232.6C7.59998 231.1 5.09998 231.1 3.59998 232.6L-8.20001 244.5C-9.70001 246 -9.70001 248.5 -8.20001 250L3.69998 261.9Z" fill="#757575"/>
</g>
</g>
<defs>
<linearGradient id="paint0_linear" x1="-58.7764" y1="298.234" x2="18.6237" y2="375.634" gradientUnits="userSpaceOnUse">
<stop offset="0.1087" stop-color="white"/>
<stop offset="0.201" stop-color="#CFCFCF"/>
<stop offset="0.3182" stop-color="#999999"/>
<stop offset="0.4368" stop-color="#6A6A6A"/>
<stop offset="0.5542" stop-color="#444444"/>
<stop offset="0.6699" stop-color="#262626"/>
<stop offset="0.7838" stop-color="#111111"/>
<stop offset="0.8949" stop-color="#040404"/>
<stop offset="1"/>
</linearGradient>
<linearGradient id="paint1_linear" x1="-116.291" y1="288.472" x2="-65.6517" y2="339.112" gradientUnits="userSpaceOnUse">
<stop offset="0.1087" stop-color="white"/>
<stop offset="0.201" stop-color="#CFCFCF"/>
<stop offset="0.3182" stop-color="#999999"/>
<stop offset="0.4368" stop-color="#6A6A6A"/>
<stop offset="0.5542" stop-color="#444444"/>
<stop offset="0.6699" stop-color="#262626"/>
<stop offset="0.7838" stop-color="#111111"/>
<stop offset="0.8949" stop-color="#040404"/>
<stop offset="1"/>
</linearGradient>
</defs>
</svg>
