<svg width="23" height="23" viewBox="0 0 23 23" fill="none" xmlns="http://www.w3.org/2000/svg">
<path d="M22.7762 9.24768H21.8499V9.19995H11.4999V13.7999H17.9991C17.051 16.4777 14.5032 18.3999 11.4999 18.3999C7.68944 18.3999 4.59998 15.3104 4.59998 11.4999C4.59998 7.68944 7.68944 4.59998 11.4999 4.59998C13.2589 4.59998 14.8591 5.26352 16.0775 6.34739L19.3303 3.09463C17.2764 1.18047 14.529 0 11.4999 0C5.1491 0 0 5.1491 0 11.4999C0 17.8508 5.1491 22.9999 11.4999 22.9999C17.8508 22.9999 22.9999 17.8508 22.9999 11.4999C22.9999 10.7289 22.9205 9.9762 22.7762 9.24768Z" fill="#FFC107"/>
<path d="M1.32593 6.14729L5.10423 8.91821C6.12658 6.38707 8.60252 4.59998 11.4999 4.59998C13.2588 4.59998 14.8591 5.26352 16.0775 6.34739L19.3302 3.09463C17.2763 1.18047 14.529 0 11.4999 0C7.0828 0 3.25217 2.49376 1.32593 6.14729Z" fill="#FF3D00"/>
<path d="M11.5 23C14.4705 23 17.1695 21.8632 19.2102 20.0146L15.6509 17.0027C14.4576 17.9103 12.9993 18.4012 11.5 18.4C8.5089 18.4 5.96913 16.4927 5.01234 13.8311L1.26221 16.7204C3.16545 20.4447 7.03058 23 11.5 23Z" fill="#4CAF50"/>
<path d="M22.7763 9.24792H21.8499V9.2002H11.5V13.8002H17.9992C17.5456 15.0746 16.7287 16.1882 15.6492 17.0035L15.6509 17.0023L19.2101 20.0142C18.9583 20.243 22.9999 17.2502 22.9999 11.5002C22.9999 10.7291 22.9206 9.97644 22.7763 9.24792Z" fill="#1976D2"/>
</svg>
