<svg xmlns="http://www.w3.org/2000/svg" width="76" height="22" fill="none" xmlns:v="https://vecta.io/nano"><path d="M0 2.933C0 1.313 1.295 0 2.893 0h15.912c1.598 0 2.893 1.313 2.893 2.933v16.133c0 1.62-1.295 2.933-2.893 2.933H2.893C1.295 22 0 20.687 0 19.067V2.933z" fill="#3080e3"/><g fill="#fcfbf9"><path d="M12.134 11.637c0-1.321 1.057-2.393 2.36-2.393s2.36 1.071 2.36 2.393v.592c0 1.321-1.057 2.393-2.36 2.393s-2.36-1.071-2.36-2.393v-.592z"/><path fill-rule="evenodd" d="M10.305 12.012V4.381h.744v-.217H4.844v.217h.741v8.348c-.029 2.535 1.603 6.941 8.363 4.285-2.221 0-3.643-.877-3.643-5.001z"/></g><path d="M32.921 16.545c-.749 0-1.428-.111-2.036-.334a4.35 4.35 0 0 1-1.565-.972c-.425-.425-.754-.932-.987-1.519-.233-.598-.349-1.261-.349-1.99V5.456h3.038v6.137c0 .446.076.83.228 1.155.162.314.385.562.668.744.294.172.633.258 1.018.258s.719-.086 1.002-.258a1.76 1.76 0 0 0 .668-.744c.162-.324.243-.709.243-1.155V5.456h3.038v6.274c0 .729-.116 1.393-.349 1.99a4.32 4.32 0 0 1-1.003 1.519 4.35 4.35 0 0 1-1.565.972c-.608.223-1.291.334-2.051.334zm6.486-.304V5.456h3.038v10.785h-3.038zm4.627 0V5.456h3.038v3.889H50.9V5.456h3.038v10.785H50.9v-4.223h-3.828v4.223h-3.038zm16.355.304c-.749 0-1.428-.111-2.035-.334a4.35 4.35 0 0 1-1.565-.972 4.42 4.42 0 0 1-.987-1.519c-.233-.598-.349-1.261-.349-1.99V5.456h3.038v6.137c0 .446.076.83.228 1.155.162.314.385.562.668.744.294.172.633.258 1.018.258s.719-.086 1.003-.258a1.76 1.76 0 0 0 .668-.744c.162-.324.243-.709.243-1.155V5.456h3.038v6.274c0 .729-.116 1.393-.349 1.99-.233.587-.567 1.094-1.003 1.519a4.35 4.35 0 0 1-1.565.972c-.608.223-1.291.334-2.051.334zm9.023-.304V8.129h-2.841V5.456h8.719V8.13h-2.84v8.112h-3.038z" fill="#fff"/></svg>